<svg id="visual" viewBox="0 0 900 600" width="900" height="600" xmlns="http://www.w3.org/2000/svg" xmlns:xlink="http://www.w3.org/1999/xlink" version="1.1"><g transform="translate(447.97818868884315 333.4474331013623)"><path d="M137.8 -242.5C175.6 -216.9 201.3 -173.9 219.8 -130.6C238.3 -87.3 249.6 -43.7 242.6 -4.1C235.5 35.5 210 71 182.7 99.1C155.5 127.3 126.5 148.1 95.7 165.2C65 182.2 32.5 195.6 -2.2 199.4C-36.8 203.1 -73.7 197.3 -97.6 176.3C-121.6 155.3 -132.7 119.1 -161.1 87.2C-189.5 55.3 -235.3 27.7 -240.2 -2.8C-245.1 -33.3 -209.1 -66.7 -174.8 -88.3C-140.5 -110 -107.7 -119.9 -78.9 -150.8C-50 -181.6 -25 -233.3 12.5 -255C50 -276.6 100 -268.2 137.8 -242.5" fill="#71b679"></path></g></svg>